<svg width="346" height="313" viewBox="0 0 346 313" fill="none" xmlns="http://www.w3.org/2000/svg">
<path d="M260.977 291.358C220.162 315.114 164.3 317.559 107.746 293.105C63.3495 273.852 25.7799 241.45 0 200.178C11.5875 209.785 25.2503 217.645 39.7779 224.632C98.0611 252.056 156.171 250.135 197.16 224.632C138.877 179.391 89.2408 120.526 52.403 72.4902C44.6204 64.6298 38.9131 54.848 33.0329 46.1142C176.233 151.793 170.007 178.693 74.7132 28.472C159.284 114.762 237.803 163.671 237.803 163.671C240.57 165.243 242.126 166.465 244.029 167.513C245.758 163.147 247.315 158.605 248.525 153.889C262.188 104.106 246.623 46.9876 212.552 0C291.243 48.0357 337.939 138.168 318.396 213.802C317.877 215.724 317.358 217.645 317.531 220.615C356.271 270.048 345.895 321.577 340.879 311.795C319.953 270.048 280.693 282.974 260.977 291.358Z" fill="#FF8D28"/>
</svg>
